<svg width="32" height="32" viewBox="0 0 32 32" fill="none" xmlns="http://www.w3.org/2000/svg">
<mask id="mask0_1574_146" style="mask-type:luminance" maskUnits="userSpaceOnUse" x="4" y="1" width="25" height="29">
<path d="M29 1H4V30H29V1Z" fill="white"/>
</mask>
<g mask="url(#mask0_1574_146)">
<path d="M6.90837 13.4785V14.8218C6.90837 15.2376 7.1898 15.7442 7.54051 15.9703L15.8336 20.8186C16.0167 20.926 16.2588 20.9797 16.5 20.9797V24.6095L15.8336 24.2197L4.63214 17.6713C4.28143 17.4443 4 16.9385 4 16.5228V8.37903L4.66636 8.76877L15.8336 15.2956C16.0167 15.403 16.2588 15.4567 16.5 15.4567V19.0864L15.8336 18.6967L7.57473 13.8683L6.90837 13.4785Z" fill="url(#paint0_linear_1574_146)"/>
<path d="M16.5 26.3711V29.9991L15.8336 29.6103L4.63214 23.0618C4.28143 22.8349 4 22.3291 4 21.9134V19.2935L4.66636 19.6832L15.8336 26.21C16.0167 26.3174 16.2588 26.3711 16.5 26.3711Z" fill="url(#paint1_linear_1574_146)"/>
<g opacity="0.3">
<path d="M6.90837 13.4785V14.8218C6.90837 15.2376 7.1898 15.7442 7.54051 15.9703L15.8336 20.8186C16.0167 20.926 16.2588 20.9797 16.5 20.9797V24.6095L15.8336 24.2197L4.63214 17.6713C4.28143 17.4443 4 16.9385 4 16.5228V8.37903L4.66636 8.76877L15.8336 15.2956C16.0167 15.403 16.2588 15.4567 16.5 15.4567V19.0864L15.8336 18.6967L7.57473 13.8683L6.90837 13.4785Z" fill="white"/>
<path d="M16.5 26.3711V29.9991L15.8336 29.6103L4.63214 23.0618C4.28143 22.8349 4 22.3291 4 21.9134V19.2935L4.66636 19.6832L15.8336 26.21C16.0167 26.3174 16.2588 26.3711 16.5 26.3711Z" fill="white"/>
</g>
<path d="M29 9.15854V11.7784L28.3679 12.1474L17.1664 18.6967L16.5 19.0865V15.4567C16.7412 15.4567 16.9833 15.403 17.1664 15.2956L28.3336 8.7688C28.6998 8.55401 29 8.72983 29 9.15854Z" fill="url(#paint2_linear_1574_146)"/>
<path d="M29 14.6816V22.6929L28.3679 23.0619L17.1612 29.6129L16.5 29.9992V26.3712C16.7412 26.3712 16.9833 26.3175 17.1664 26.2101L25.4595 21.3617C25.8102 21.1357 26.0916 20.629 26.0916 20.2133V19.7811C26.0916 19.3524 25.7914 19.1775 25.4253 19.3914L17.1664 24.2198L16.5 24.6095V20.9798C16.7412 20.9798 16.9833 20.9261 17.1664 20.8187L28.3336 14.2919C28.6998 14.0771 29 14.2529 29 14.6816Z" fill="url(#paint3_linear_1574_146)"/>
<g opacity="0.25">
<path d="M29 9.15854V11.7784L28.3679 12.1474L17.1664 18.6967L16.5 19.0865V15.4567C16.7412 15.4567 16.9833 15.403 17.1664 15.2956L28.3336 8.7688C28.6998 8.55401 29 8.72983 29 9.15854Z" fill="black"/>
<path d="M29 14.6816V22.6929L28.3679 23.0619L17.1612 29.6129L16.5 29.9992V26.3712C16.7412 26.3712 16.9833 26.3175 17.1664 26.2101L25.4595 21.3617C25.8102 21.1357 26.0916 20.629 26.0916 20.2133V19.7811C26.0916 19.3524 25.7914 19.1775 25.4253 19.3914L17.1664 24.2198L16.5 24.6095V20.9798C16.7412 20.9798 16.9833 20.9261 17.1664 20.8187L28.3336 14.2919C28.6998 14.0771 29 14.2529 29 14.6816Z" fill="black"/>
</g>
<path d="M28.9997 8.2457V8.35136C28.9835 8.33057 28.9638 8.30806 28.9424 8.2864C28.8303 8.17121 28.6516 8.05343 28.4189 8.11838L28.7422 7.92871C28.7422 7.92871 28.7474 7.93218 28.7568 7.93824C28.7602 7.93997 28.7636 7.94257 28.767 7.94517C28.8124 7.97635 28.9082 8.04823 28.945 8.12098C28.9484 8.12704 28.9518 8.13397 28.9552 8.1409C28.9552 8.14437 28.9578 8.14783 28.9604 8.15129C28.9604 8.15216 28.9612 8.15389 28.9621 8.15476C28.9621 8.15909 28.9655 8.16255 28.9672 8.16775C28.9672 8.16948 28.9689 8.17208 28.9698 8.17468C28.98 8.1972 28.9902 8.22145 28.9997 8.2457Z" fill="#BBBDBF"/>
<path d="M28.0841 7.54328L26.4836 6.6079C26.1166 6.39571 25.5213 6.39658 25.156 6.61137L17.1631 11.296C16.7962 11.5108 16.1974 11.5108 15.8313 11.296L15.3993 11.0431L14.7372 10.6551L15.3984 10.2689L23.411 5.58419L24.0722 5.19792L23.405 4.80818L21.8302 3.88753C21.4641 3.67361 20.8636 3.67361 20.4975 3.88753L12.4952 8.56526C12.1291 8.78004 11.5312 8.77571 11.1676 8.55573L10.7297 8.29071L10.1018 7.91223L10.7588 7.52855L18.7431 2.86295L19.4103 2.47321L18.7439 2.08347L17.1657 1.16109C16.7996 0.946303 16.1991 0.946303 15.833 1.16109L4.91977 7.54154L4.25684 7.92868L4.91806 8.31496L15.8338 14.6963C16.2 14.9102 16.8004 14.9102 17.1666 14.6963L28.0841 8.31496L28.7444 7.92868L28.0841 7.54328Z" fill="url(#paint4_linear_1574_146)"/>
</g>
<defs>
<linearGradient id="paint0_linear_1574_146" x1="4" y1="16.5029" x2="11.5574" y2="21.8828" gradientUnits="userSpaceOnUse">
<stop stop-color="#1F93FF"/>
<stop offset="1" stop-color="#00D7BE"/>
</linearGradient>
<linearGradient id="paint1_linear_1574_146" x1="4" y1="22.6954" x2="9.29199" y2="29.7831" gradientUnits="userSpaceOnUse">
<stop stop-color="#1F93FF"/>
<stop offset="1" stop-color="#00D7BE"/>
</linearGradient>
<linearGradient id="paint2_linear_1574_146" x1="28.0796" y1="11.2631" x2="17.2181" y2="12.4982" gradientUnits="userSpaceOnUse">
<stop stop-color="#00D7BE"/>
<stop offset="1" stop-color="#1F93FF"/>
</linearGradient>
<linearGradient id="paint3_linear_1574_146" x1="28.9778" y1="22.1326" x2="15.7503" y2="27.0183" gradientUnits="userSpaceOnUse">
<stop stop-color="#00D7BE"/>
<stop offset="1" stop-color="#1F93FF"/>
</linearGradient>
<linearGradient id="paint4_linear_1574_146" x1="-0.873776" y1="7.92854" x2="33.0044" y2="7.92854" gradientUnits="userSpaceOnUse">
<stop stop-color="#FFE3C4"/>
<stop offset="0.33" stop-color="#FFB869"/>
<stop offset="0.67" stop-color="#FF4F7D"/>
<stop offset="1" stop-color="#8B00B7"/>
</linearGradient>
</defs>
</svg>
