<svg width="25" height="29" viewBox="0 0 25 29" fill="none" xmlns="http://www.w3.org/2000/svg">
<g clip-path="url(#clip0_816_240)">
<path d="M2.90837 12.4786V13.8219C2.90837 14.2376 3.1898 14.7443 3.54051 14.9703L11.8336 19.8187C12.0167 19.9261 12.2588 19.9798 12.5 19.9798V23.6095L11.8336 23.2198L0.632143 16.6713C0.281428 16.4444 0 15.9386 0 15.5229V7.37909L0.666359 7.76883L11.8336 14.2956C12.0167 14.403 12.2588 14.4567 12.5 14.4567V18.0865L11.8336 17.6968L3.57473 12.8683L2.90837 12.4786Z" fill="url(#paint0_linear_816_240)"/>
<path d="M12.5 25.3712V28.9992L11.8336 28.6103L0.632143 22.0619C0.281428 21.8349 0 21.3291 0 20.9134V18.2935L0.666359 18.6833L11.8336 25.2101C12.0167 25.3175 12.2588 25.3712 12.5 25.3712Z" fill="url(#paint1_linear_816_240)"/>
<g opacity="0.3">
<path d="M2.90837 12.4786V13.8219C2.90837 14.2376 3.1898 14.7443 3.54051 14.9703L11.8336 19.8187C12.0167 19.9261 12.2588 19.9798 12.5 19.9798V23.6095L11.8336 23.2198L0.632143 16.6713C0.281428 16.4444 0 15.9386 0 15.5229V7.37909L0.666359 7.76883L11.8336 14.2956C12.0167 14.403 12.2588 14.4567 12.5 14.4567V18.0865L11.8336 17.6968L3.57473 12.8683L2.90837 12.4786Z" fill="white"/>
<path d="M12.5 25.3712V28.9992L11.8336 28.6103L0.632143 22.0619C0.281428 21.8349 0 21.3291 0 20.9134V18.2935L0.666359 18.6833L11.8336 25.2101C12.0167 25.3175 12.2588 25.3712 12.5 25.3712Z" fill="white"/>
</g>
<path d="M25 8.15854V10.7784L24.3679 11.1474L13.1664 17.6967L12.5 18.0865V14.4567C12.7412 14.4567 12.9833 14.403 13.1664 14.2956L24.3336 7.7688C24.6998 7.55401 25 7.72983 25 8.15854Z" fill="url(#paint2_linear_816_240)"/>
<path d="M25 13.6815V21.6928L24.3679 22.0618L13.1612 28.6129L12.5 28.9991V25.3711C12.7412 25.3711 12.9833 25.3174 13.1664 25.21L21.4595 20.3617C21.8102 20.1356 22.0916 19.629 22.0916 19.2132V18.7811C22.0916 18.3523 21.7914 18.1774 21.4253 18.3913L13.1664 23.2197L12.5 23.6095V19.9797C12.7412 19.9797 12.9833 19.926 13.1664 19.8186L24.3336 13.2918C24.6998 13.077 25 13.2528 25 13.6815Z" fill="url(#paint3_linear_816_240)"/>
<g opacity="0.25">
<path d="M25 8.15854V10.7784L24.3679 11.1474L13.1664 17.6967L12.5 18.0865V14.4567C12.7412 14.4567 12.9833 14.403 13.1664 14.2956L24.3336 7.7688C24.6998 7.55401 25 7.72983 25 8.15854Z" fill="black"/>
<path d="M25 13.6815V21.6928L24.3679 22.0618L13.1612 28.6129L12.5 28.9991V25.3711C12.7412 25.3711 12.9833 25.3174 13.1664 25.21L21.4595 20.3617C21.8102 20.1356 22.0916 19.629 22.0916 19.2132V18.7811C22.0916 18.3523 21.7914 18.1774 21.4253 18.3913L13.1664 23.2197L12.5 23.6095V19.9797C12.7412 19.9797 12.9833 19.926 13.1664 19.8186L24.3336 13.2918C24.6998 13.077 25 13.2528 25 13.6815Z" fill="black"/>
</g>
<path d="M25 7.2457V7.35136C24.9838 7.33057 24.9641 7.30806 24.9427 7.2864C24.8306 7.17121 24.6519 7.05343 24.4192 7.11838L24.7425 6.92871C24.7425 6.92871 24.7477 6.93218 24.7571 6.93824C24.7605 6.93997 24.7639 6.94257 24.7673 6.94517C24.8127 6.97635 24.9085 7.04823 24.9453 7.12098C24.9487 7.12704 24.9521 7.13397 24.9555 7.1409C24.9555 7.14437 24.9581 7.14783 24.9607 7.15129C24.9607 7.15216 24.9615 7.15389 24.9624 7.15476C24.9624 7.15909 24.9658 7.16255 24.9675 7.16775C24.9675 7.16948 24.9692 7.17208 24.9701 7.17468C24.9803 7.1972 24.9897 7.22145 24.9992 7.2457H25Z" fill="#BBBDBF"/>
<path d="M24.0839 6.54328L22.4834 5.6079C22.1164 5.39571 21.5211 5.39658 21.1558 5.61137L13.1629 10.296C12.796 10.5108 12.1972 10.5108 11.8311 10.296L11.3991 10.0431L10.737 9.65512L11.3982 9.26885L19.4108 4.58419L20.072 4.19792L19.4048 3.80818L17.83 2.88753C17.4639 2.67361 16.8634 2.67361 16.4973 2.88753L8.49501 7.56526C8.12889 7.78004 7.53097 7.77571 7.16742 7.55573L6.72945 7.29071L6.10159 6.91223L6.75854 6.52855L14.7429 1.86295L15.4101 1.47321L14.7437 1.08347L13.1655 0.161092C12.7994 -0.0536973 12.1989 -0.0536973 11.8328 0.161092L0.919559 6.54154L0.256622 6.92868L0.917849 7.31496L11.8336 13.6963C12.1998 13.9102 12.8002 13.9102 13.1664 13.6963L24.0839 7.31496L24.7442 6.92868L24.0847 6.54328H24.0839Z" fill="url(#paint4_linear_816_240)"/>
</g>
<defs>
<linearGradient id="paint0_linear_816_240" x1="2.01685e-07" y1="15.503" x2="7.55738" y2="20.8828" gradientUnits="userSpaceOnUse">
<stop stop-color="#1F93FF"/>
<stop offset="1" stop-color="#00D7BE"/>
</linearGradient>
<linearGradient id="paint1_linear_816_240" x1="5.48993e-08" y1="21.6955" x2="5.29199" y2="28.7832" gradientUnits="userSpaceOnUse">
<stop stop-color="#1F93FF"/>
<stop offset="1" stop-color="#00D7BE"/>
</linearGradient>
<linearGradient id="paint2_linear_816_240" x1="24.0796" y1="10.2631" x2="13.2181" y2="11.4982" gradientUnits="userSpaceOnUse">
<stop stop-color="#00D7BE"/>
<stop offset="1" stop-color="#1F93FF"/>
</linearGradient>
<linearGradient id="paint3_linear_816_240" x1="24.9778" y1="21.1325" x2="11.7503" y2="26.0183" gradientUnits="userSpaceOnUse">
<stop stop-color="#00D7BE"/>
<stop offset="1" stop-color="#1F93FF"/>
</linearGradient>
<linearGradient id="paint4_linear_816_240" x1="-4.87399" y1="6.92854" x2="29.0042" y2="6.92854" gradientUnits="userSpaceOnUse">
<stop stop-color="#FFE3C4"/>
<stop offset="0.33" stop-color="#FFB869"/>
<stop offset="0.67" stop-color="#FF4F7D"/>
<stop offset="1" stop-color="#8B00B7"/>
</linearGradient>
<clipPath id="clip0_816_240">
<rect width="25" height="29" fill="white"/>
</clipPath>
</defs>
</svg>
